<?xml version="1.0" encoding="utf-8"?>
<!-- Generator: Adobe Illustrator 22.0.1, SVG Export Plug-In . SVG Version: 6.00 Build 0)  -->
<svg version="1.1" id="Layer_1" xmlns="http://www.w3.org/2000/svg" xmlns:xlink="http://www.w3.org/1999/xlink" x="0px" y="0px"
	 viewBox="0 0 32 32" style="enable-background:new 0 0 32 32;" xml:space="preserve">
<style type="text/css">
	.st0{fill:#F29100;}
	.st1{fill:#E20D13;}
</style>
<g>
	<path class="st0" d="M23.7,26.4c-1.9,2.1-3.6,0.4-2.7-0.9c0.5-0.8,1.7-2.4,2.7-4.2c1.5-2.6,1.6-4.6,0.7-6.7c-0.8-1.8-1.4-2.8-2.2-4
		c-0.1-0.2-0.3-0.1-0.3,0.1c-0.3,3.3-5.3,9.2-7.1,11.6c-1.2,1.6-3.2,4.5-2.4,7.2c0.7,2.3,3.7,2.7,5.4,2.5c2.1-0.3,4.2-1.1,5.8-2.5
		c2.5-2.1,3.4-4.9,3.2-7.9c0-0.2-0.2-0.2-0.3,0C25.9,23.1,24.9,25,23.7,26.4z"/>
	<path class="st1" d="M18.8,4.3c-0.8-1.9-2.3-3.5-3-4.3c-0.1-0.1-0.4,0-0.3,0.2c0.2,1.2,0.2,3.9-2.8,8c-1.4,1.9-3,3.9-4.2,5.5
		c-3.5,4.8-4.8,10.8-0.9,14.9c0.7,0.7,1.5,1.4,2.4,1.9c0.1,0.1,0.2-0.1,0.2-0.2c-3.2-4,2.2-9.6,6.2-15.1c1.7-2.3,2.7-4.3,3.1-6.8
		C19.7,7.2,19.4,5.6,18.8,4.3z"/>
</g>
</svg>
